<svg xmlns="http://www.w3.org/2000/svg" version="1.1" xmlns:xlink="http://www.w3.org/1999/xlink" width="512" height="512" x="0" y="0" viewBox="0 0 24 24" style="enable-background:new 0 0 512 512" xml:space="preserve" class=""><g><path d="M20 1.4H4A2.6 2.6 0 0 0 1.4 4v16A2.6 2.6 0 0 0 4 22.6h16a2.6 2.6 0 0 0 2.6-2.6V4A2.6 2.6 0 0 0 20 1.4zM21.4 20a1.4 1.4 0 0 1-1.4 1.4H4A1.4 1.4 0 0 1 2.6 20V4A1.4 1.4 0 0 1 4 2.6h16A1.4 1.4 0 0 1 21.4 4zM17 13.86a.6.6 0 1 1-.85.85L12 10.57l-4.13 4.14a.6.6 0 0 1-.87-.85l4.57-4.57a.6.6 0 0 1 .43-.17.6.6 0 0 1 .42.18z" fill="#c70101" opacity="1" data-original="#000000" class=""></path></g></svg>